<svg width="55" height="77" viewBox="0 0 55 77" fill="none" xmlns="http://www.w3.org/2000/svg">
<path d="M18.9454 36.2267C18.6659 36.2267 18.3863 36.0762 18.2358 35.8074C18.0207 35.4203 18.1605 34.9257 18.5476 34.7106C24.0852 31.6461 30.2358 31.6138 35.7842 34.6246C36.1713 34.8396 36.3218 35.3235 36.1067 35.7214C35.8917 36.1085 35.4078 36.259 35.01 36.0439C29.9347 33.2913 24.3863 33.3128 19.3218 36.1192C19.1928 36.1837 19.0637 36.216 18.9347 36.216L18.9454 36.2267Z" fill="#4C4C4C"/>
<path d="M27.2472 76.6672C13.7956 76.6672 5.10742 69.3769 5.10742 58.0866C5.10742 50.7533 8.60205 43.0006 14.2149 37.8608C14.5375 37.5597 15.0537 37.5812 15.3547 37.9145C15.6558 38.2479 15.6343 38.7533 15.301 39.0543C10.0859 43.8285 6.70957 51.2909 6.70957 58.0866C6.70957 68.3984 14.7633 75.0543 27.2365 75.0543C39.7096 75.0543 47.7633 68.3877 47.7633 58.0866C47.7633 51.3232 44.4085 43.8715 39.2257 39.0973C38.9031 38.7963 38.8816 38.2909 39.1827 37.9576C39.4838 37.635 39.9999 37.6135 40.3225 37.9145C45.9031 43.0543 49.3762 50.7855 49.3762 58.0866C49.3762 69.3769 40.6881 76.6672 27.2365 76.6672H27.2472Z" fill="#4C4C4C"/>
<path d="M14.3209 53.6246C13.9875 53.6246 13.6649 53.4095 13.5574 53.0762C13.2026 52.0117 13.2886 50.8611 13.794 49.8611C14.2994 48.8504 15.1703 48.1085 16.2348 47.7536C18.4391 47.0224 20.8262 48.2267 21.5574 50.431C21.6972 50.8504 21.4714 51.3128 21.0413 51.4525C20.6112 51.5923 20.1596 51.3665 20.0198 50.9364C19.5682 49.5708 18.0951 48.8289 16.7295 49.2805C16.0736 49.4956 15.5359 49.9579 15.2241 50.5816C14.9123 51.2052 14.8585 51.9042 15.0736 52.5708C15.2133 52.9902 14.9875 53.4525 14.5574 53.5923C14.4714 53.6246 14.3854 53.6353 14.2994 53.6353L14.3209 53.6246Z" fill="#4C4C4C"/>
<path d="M40.1694 53.6245C40.0834 53.6245 39.9974 53.6137 39.9114 53.5815C39.492 53.4417 39.2555 52.9901 39.3952 52.56C39.8469 51.1944 39.1049 49.7213 37.7393 49.2696C37.0834 49.0546 36.3737 49.1083 35.7501 49.4202C35.1264 49.732 34.6641 50.2696 34.449 50.9256C34.3092 51.3449 33.8576 51.5815 33.4275 51.4417C33.0081 51.3019 32.7716 50.8503 32.9114 50.4202C33.6426 48.2159 36.0297 47.0116 38.234 47.7428C40.4383 48.4739 41.6426 50.861 40.9114 53.0653C40.8038 53.3987 40.4813 53.6137 40.1479 53.6137L40.1694 53.6245Z" fill="#4C4C4C"/>
<path d="M23.5484 64.8182C22 64.8182 20.5162 63.9687 19.7742 62.4956C19.5699 62.0978 19.7312 61.6139 20.1291 61.4096C20.5269 61.2053 21.0108 61.3666 21.2151 61.7644C21.8602 63.044 23.4301 63.5601 24.7097 62.9257C25.5377 62.5064 26.086 61.6784 26.1398 60.7429C26.1613 60.3021 26.5484 59.958 26.9893 59.9795C27.4301 60.001 27.7742 60.3881 27.7527 60.8289C27.6667 62.3236 26.785 63.6784 25.4409 64.3558C24.8387 64.6569 24.1936 64.8074 23.5592 64.8074L23.5484 64.8182Z" fill="#4C4C4C"/>
<path d="M30.9563 64.8183C30.3218 64.8183 29.6767 64.6785 29.0745 64.3667C27.7304 63.6893 26.8487 62.3452 26.7627 60.8398C26.7412 60.399 27.0745 60.0119 27.5261 59.9904C27.9778 59.9581 28.3541 60.3022 28.3756 60.7538C28.4294 61.6785 28.9778 62.5173 29.8057 62.9366C31.0853 63.5818 32.6552 63.0656 33.3003 61.7753C33.5046 61.3775 33.9885 61.2162 34.3864 61.4205C34.7842 61.6248 34.9455 62.1087 34.7412 62.5065C33.9993 63.9796 32.5154 64.8291 30.967 64.8291L30.9563 64.8183Z" fill="#4C4C4C"/>
<path d="M27.2468 61.1082C27.1392 61.1082 27.021 61.0867 26.9134 61.033C26.4726 60.8287 22.5586 59.0115 22.5586 56.4201C22.5586 55.3233 23.0102 52.7749 27.236 52.7749C31.4618 52.7749 31.9134 55.3233 31.9134 56.4201C31.9134 59.0115 28.0102 60.8287 27.5586 61.033C27.4511 61.076 27.3435 61.1082 27.2253 61.1082H27.2468ZM27.2468 54.3878C24.1823 54.3878 24.1823 55.8717 24.1823 56.4201C24.1823 57.5276 26.0747 58.8072 27.2468 59.3986C28.4188 58.7964 30.3113 57.5276 30.3113 56.4201C30.3113 55.8609 30.3113 54.3878 27.2468 54.3878Z" fill="#4C4C4C"/>
<path d="M27.2889 68.9901C26.848 68.9901 26.4824 68.6245 26.4824 68.1837V62.4095C26.4824 61.9686 26.848 61.603 27.2889 61.603C27.7297 61.603 28.0953 61.9686 28.0953 62.4095V68.1837C28.0953 68.6245 27.7297 68.9901 27.2889 68.9901Z" fill="#4C4C4C"/>
<path d="M29.9995 69.7426H24.5049C23.3974 69.7426 22.4941 68.8394 22.4941 67.7319V64.4953C22.4941 64.0544 22.8597 63.6888 23.3006 63.6888C23.7415 63.6888 24.107 64.0544 24.107 64.4953V67.7319C24.107 67.9577 24.2898 68.1297 24.5049 68.1297H29.9995C30.2146 68.1297 30.3974 67.9469 30.3974 67.7319V64.5276C30.3974 64.0867 30.763 63.7211 31.2038 63.7211C31.6447 63.7211 32.0103 64.0867 32.0103 64.5276V67.7319C32.0103 68.8394 31.107 69.7426 29.9995 69.7426Z" fill="#4C4C4C"/>
<path d="M31.7727 34.6568C31.3749 34.6568 31.02 34.3557 30.977 33.9471C30.3641 28.9149 30.719 24.2697 32.0308 20.1084C35.2351 10.0116 44.0093 3.29121 47.6437 0.882608C48.2996 0.441748 49.1061 0.334221 49.8587 0.57078C50.6114 0.80734 51.2028 1.36648 51.4824 2.10841C52.8372 5.61379 55.02 12.6568 54.3964 20.3235C54.3641 20.7643 53.9663 21.0977 53.5254 21.0654C53.0845 21.0331 52.7512 20.6461 52.7835 20.1944C53.3749 12.8396 51.2673 6.0654 49.9663 2.68906C49.8587 2.40949 49.6329 2.20519 49.3534 2.10841C49.0738 2.02239 48.7727 2.0654 48.5254 2.22669C45.0415 4.54928 36.6114 10.9901 33.5577 20.603C32.3104 24.5278 31.977 28.9579 32.5577 33.7536C32.6114 34.1944 32.2996 34.603 31.8587 34.6568C31.8265 34.6568 31.7942 34.6568 31.762 34.6568H31.7727Z" fill="#4C4C4C"/>
<path d="M42.3649 42.0653C42.1499 42.0653 41.9241 41.9793 41.7628 41.7965C41.4617 41.4631 41.494 40.9577 41.8166 40.6567C43.5692 39.076 45.6015 37.162 47.4832 34.4954C47.7413 34.1298 48.2467 34.0438 48.6122 34.3018C48.9778 34.5599 49.0639 35.0653 48.8058 35.4309C46.8273 38.2373 44.7198 40.2158 42.9026 41.861C42.752 42.0008 42.5585 42.0653 42.3649 42.0653Z" fill="#4C4C4C"/>
<path d="M12.139 42.0653C11.9454 42.0653 11.7519 42.0008 11.6014 41.861C6.51534 37.2696 3.06373 32.2051 1.35405 26.818C-1.85025 16.7105 1.45082 6.16208 3.02071 2.09757C3.30028 1.35563 3.90244 0.807244 4.64437 0.559932C5.39706 0.323373 6.20351 0.441652 6.85942 0.882513C10.4831 3.30187 19.268 10.0115 22.4723 20.1191C23.7842 24.2696 24.1497 28.9255 23.5261 33.9578C23.4723 34.3986 23.0637 34.7105 22.6229 34.6567C22.182 34.6029 21.8702 34.2051 21.9239 33.7535C22.5046 28.9578 22.1713 24.5277 20.9239 20.6029C17.8809 10.99 9.45082 4.53843 5.96695 2.21585C5.71964 2.05456 5.41856 2.01154 5.13899 2.09757C4.85942 2.18359 4.63362 2.39864 4.52609 2.67821C3.00996 6.58144 -0.162081 16.7105 2.88093 26.3234C4.50459 31.4417 7.79491 36.2589 12.6659 40.6567C12.9992 40.9578 13.0207 41.4632 12.7196 41.7965C12.5583 41.9685 12.3433 42.0653 12.1175 42.0653H12.139Z" fill="#4C4C4C"/>
</svg>
