<svg width="112" height="112" viewBox="0 0 112 112" fill="none" xmlns="http://www.w3.org/2000/svg">
<path d="M45.3758 6.02157C43.1026 6.46031 41.8773 7.66289 42.2399 9.5415C42.5141 10.9623 43.5737 11.8713 46.0099 11.5976C44.3323 12.0687 43.3888 13.1187 43.6599 14.5237C43.9616 16.0866 45.1913 17.0282 47.3383 16.6139L52.1374 15.6876L50.096 5.11058L45.3758 6.02157ZM47.5703 14.9316C46.4653 15.1449 45.6563 14.9408 45.4491 13.8673C45.2419 12.7938 45.9041 12.3221 46.9618 12.118L49.5034 11.6274L50.0488 14.4533L47.5703 14.9316ZM46.4987 10.6518C45.2673 10.8894 44.3392 10.5773 44.1321 9.5038C43.9249 8.43031 44.4965 7.82875 45.9489 7.54844L48.6168 7.03353L49.214 10.1277L46.4987 10.6518Z" fill="#3F2B1E"/>
<path d="M35.9133 8.79201C34.4903 9.43013 34.1909 10.7273 34.4334 11.9754L33.5585 10.0242L31.9007 10.7675L35.1044 17.9121L36.7622 17.1687L34.9662 13.1637C34.44 11.99 34.5021 11.0283 35.7051 10.4888C36.8054 9.99546 37.3685 10.4654 37.7632 11.3456L39.7696 15.8201L41.4127 15.0833L39.1826 10.11C38.5182 8.6283 37.2923 8.17364 35.9133 8.79201Z" fill="#3F2B1E"/>
<path d="M31.9266 21.3204L32.9426 22.846L34.4414 21.8479L33.4255 20.3223L31.9266 21.3204ZM26.9719 13.8798L31.3118 20.397L32.8106 19.3989L28.4707 12.8817L26.9719 13.8798Z" fill="#3F2B1E"/>
<path d="M22.3697 17.457L29.3334 25.6757L30.7073 24.5116L23.7436 16.2929L22.3697 17.457Z" fill="#3F2B1E"/>
<path d="M17.4327 22.148C16.4257 23.3389 16.7981 24.517 17.5528 25.4921L15.969 24.1529L14.8063 25.5279L23.032 32.4835L24.1947 31.1084L20.3397 27.8487C21.4388 28.4412 22.6832 28.5881 23.6902 27.3972C24.9153 25.9485 24.5134 24.0085 22.5859 22.3786C20.6584 20.7487 18.6785 20.6748 17.4327 22.148ZM21.392 23.7905C22.7302 24.922 22.8429 26.1333 22.1162 26.9927C21.2961 27.9626 20.3028 27.8175 19.3207 26.987L18.5718 26.3537C17.5896 25.5232 17.2938 24.5783 18.1035 23.6206C18.8406 22.749 20.0415 22.6485 21.392 23.7905Z" fill="#3F2B1E"/>
<path d="M8.55802 36.703C7.82889 38.5239 8.39858 40.0856 9.61637 41.0235L10.9663 39.8148C9.98723 39.2323 9.49489 38.429 9.9491 37.2946C10.4093 36.1453 11.541 35.7845 13.0634 36.3941C14.6008 37.0097 15.1707 38.0519 14.7105 39.2011C14.2622 40.3206 13.3456 40.577 12.235 40.3229L12.3777 42.1292C13.9062 42.291 15.3963 41.5541 16.1254 39.7331C16.992 37.5688 16.0135 35.601 13.7447 34.6925C11.4909 33.7901 9.42462 34.5387 8.55802 36.703Z" fill="#3F2B1E"/>
<path d="M5.84895 45.9097C5.58814 47.4473 6.4999 48.4174 7.67208 48.9097L5.56382 48.5521L5.25999 50.3433L12.9797 51.6528L13.2835 49.8615L8.95605 49.1275C7.68793 48.9124 6.92308 48.3261 7.14356 47.0262C7.34521 45.8374 8.0489 45.6306 8.99999 45.7919L13.8347 46.612L14.1359 44.8366L8.76218 43.9251C7.16117 43.6535 6.10169 44.4197 5.84895 45.9097Z" fill="#3F2B1E"/>
<path d="M4.99345 57.6455C5.05572 59.3004 5.87588 60.5728 7.41827 60.5147C8.54294 60.4724 9.22569 59.8032 9.60966 58.035L9.81499 57.078C10.0482 56.0073 10.2414 55.5817 10.8037 55.5606C11.3339 55.5406 11.6406 55.9957 11.6666 56.6865C11.7047 57.6987 11.222 58.5535 10.375 59.1324L11.5395 60.1505C12.4051 59.6353 13.1643 58.4322 13.1014 56.7613C13.0337 54.9618 12.1059 53.8222 10.6438 53.8772C9.21391 53.931 8.71056 55.0923 8.46791 56.3403L8.25014 57.3943C8.07392 58.2697 7.90348 58.8715 7.32509 58.8932C6.76275 58.9144 6.47088 58.4266 6.44187 57.6554C6.38927 56.2576 7.15633 55.2634 7.92728 54.8L6.76272 53.7819C5.54795 54.4229 4.93059 55.9746 4.99345 57.6455Z" fill="#3F2B1E"/>
<path d="M6.25331 67.0023C6.50018 68.1168 7.1851 68.7556 7.74474 68.9774L9.19279 68.0803C8.70458 67.9579 8.1206 67.6262 7.98848 67.0297C7.87373 66.5116 7.99088 66.074 8.82284 65.8897L12.5902 65.0552L13.1083 67.3942L14.474 67.0917L13.9559 64.7527L15.9966 64.3007L14.4927 62.7895L13.5665 62.9946L13.3022 61.8016L11.9366 62.1041L12.2008 63.2971L8.00958 64.2255C6.6596 64.5245 5.93343 65.5581 6.25331 67.0023Z" fill="#3F2B1E"/>
<path d="M9.04321 75.4485C9.95155 77.5431 12.0702 78.3067 14.2976 77.3408C16.5397 76.3685 17.4301 74.2999 16.5218 72.2053C15.6263 70.1402 13.5076 69.3766 11.2655 70.3489C9.03815 71.3148 8.14767 73.3834 9.04321 75.4485ZM10.4214 74.8683C9.96085 73.8063 10.3491 72.7617 12.0011 72.0453C13.668 71.3224 14.6958 71.7529 15.1564 72.815C15.6234 73.8918 15.2352 74.9363 13.5683 75.6592C11.9163 76.3756 10.8884 75.9451 10.4214 74.8683Z" fill="#3F2B1E"/>
<path d="M13.5923 83.7993L17.0258 81.065C18.032 80.2637 18.979 80.085 19.6401 80.9151C20.3011 81.7452 20.1539 82.4379 19.3113 83.1089L15.4753 86.1638L16.5971 87.5724L20.0306 84.8381C21.0368 84.0368 21.9838 83.8581 22.6449 84.6882C23.3059 85.5183 23.1588 86.211 22.3161 86.882L18.4801 89.9369L19.6019 91.3455L23.8655 87.9501C25.1358 86.9385 25.3619 85.7513 24.4304 84.5816C23.4989 83.412 22.1755 83.4794 21.0368 84.0368C22.1438 83.0524 22.317 81.9279 21.4256 80.8085C20.5041 79.6515 19.1933 79.7088 18.0445 80.2537L19.7173 78.9215L18.5955 77.5129L12.4705 82.3907L13.5923 83.7993Z" fill="#3F2B1E"/>
<path d="M29.9131 88.1722L31.0733 86.7532L29.6793 85.6134L28.5191 87.0323L29.9131 88.1722ZM24.2545 95.0926L29.2109 89.031L27.8168 87.8911L22.8604 93.9527L24.2545 95.0926Z" fill="#3F2B1E"/>
<path d="M33.086 100.819L33.8538 99.4987L31.352 98.044L29.5603 97.0951L31.2205 96.7028L36.1798 95.1787L36.883 93.9695L31.2956 90.7205L30.5197 92.0548L32.7296 93.3399L34.3626 94.1778L32.8285 94.5133L27.8126 96.1346L27.1094 97.3439L33.086 100.819Z" fill="#3F2B1E"/>
<path d="M38.0348 103.045C39.5909 103.562 40.6936 102.641 41.2472 101.741L41.0645 102.29C40.7093 103.358 41.2131 103.933 42.0064 104.196L43.0591 104.546L43.5462 103.082L43.0732 102.925C42.7986 102.833 42.7121 102.686 42.8237 102.35L43.7522 99.5583C44.3611 97.7275 43.6738 96.3298 41.8277 95.7159C40.18 95.1679 38.7364 95.6366 37.8928 96.2371L38.5091 97.7976C39.1951 97.1616 40.1659 96.8406 41.1576 97.1704C42.1798 97.5104 42.348 98.1255 42.1604 98.8933L39.3235 99.119C37.961 99.1911 37.0155 99.5883 36.6654 100.641C36.3103 101.709 36.8143 102.639 38.0348 103.045ZM38.3994 100.93C38.5262 100.548 38.8719 100.375 39.609 100.298L41.8002 100.078L41.5364 100.872C41.2015 101.878 40.2154 102.296 39.0864 101.921C38.4609 101.713 38.2573 101.357 38.3994 100.93Z" fill="#3F2B1E"/>
<path d="M48.4607 105.524L48.6847 103.462C48.8102 104.688 49.3527 105.798 50.9031 105.967C52.8372 106.177 54.2204 104.759 54.4931 102.249C54.7657 99.7397 53.7194 98.0572 51.8173 97.8506C50.2669 97.6821 49.4667 98.6464 49.079 99.8334L49.6243 94.8144L47.8341 94.6199L46.6705 105.329L48.4607 105.524ZM48.8289 102.135L48.9348 101.16C49.0737 99.8813 49.6933 99.0915 50.956 99.2287C52.0908 99.352 52.8442 100.307 52.6549 102.049C52.4639 103.808 51.5247 104.563 50.3898 104.439C49.1271 104.302 48.6899 103.414 48.8289 102.135Z" fill="#3F2B1E"/>
<path d="M59.321 105.875L58.6996 95.1212L56.9019 95.2251L57.5233 105.979L59.321 105.875Z" fill="#3F2B1E"/>
<path d="M66.8186 104.913C68.5118 104.528 69.3717 103.525 69.7521 102.515L68.4136 101.632C68.2776 102.339 67.8388 103.164 66.5062 103.467C65.299 103.742 64.3319 103.187 63.9275 101.844L69.3833 100.603C69.379 100.44 69.3355 100.103 69.2713 99.821C68.7898 97.7045 67.174 96.4727 64.8851 96.9933C62.7373 97.4819 61.6081 99.4041 62.1538 101.803C62.6958 104.186 64.5454 105.43 66.8186 104.913ZM65.2061 98.4043C66.3662 98.1404 67.2058 98.6419 67.6058 99.8206L63.6864 100.712C63.5458 99.4415 64.1243 98.6504 65.2061 98.4043Z" fill="#3F2B1E"/>
<path d="M80.4896 99.4937L79.4084 97.7237C80.2565 98.6187 81.3639 99.1669 82.6948 98.3539C84.355 97.3398 84.5848 95.372 83.269 93.2178C81.9532 91.0636 80.0974 90.3697 78.4647 91.367C77.1338 92.18 77.0885 93.4322 77.5059 94.6091L74.8743 90.3008L73.3376 91.2394L78.9529 100.432L80.4896 99.4937ZM78.7128 96.5849L78.2016 95.7479C77.5311 94.6502 77.5397 93.6465 78.6236 92.9844C79.5978 92.3893 80.7776 92.6861 81.6911 94.1816C82.613 95.6909 82.33 96.8623 81.3558 97.4574C80.2719 98.1195 79.3833 97.6825 78.7128 96.5849Z" fill="#3F2B1E"/>
<path d="M90.6776 92.0848C91.9304 90.8826 92.1506 89.5794 91.9564 88.5179L90.3545 88.4508C90.6021 89.1268 90.6511 90.0602 89.665 91.0065C88.7718 91.8636 87.6569 91.8861 86.6188 90.9437L90.6558 87.0697C90.5677 86.9314 90.3572 86.6655 90.1568 86.4567C88.6539 84.8906 86.6345 84.6671 84.9408 86.2924C83.3515 87.8175 83.3737 90.0467 85.077 91.8216C86.7691 93.5849 88.9955 93.699 90.6776 92.0848ZM85.9427 87.3364C86.8011 86.5126 87.7791 86.51 88.7291 87.3142L85.8289 90.0973C85.0539 89.0806 85.1422 88.1045 85.9427 87.3364Z" fill="#3F2B1E"/>
<path d="M96.7008 85.2124C97.6175 83.8526 97.0267 82.543 96.3083 81.7678L96.7882 82.0914C97.7214 82.7205 98.4099 82.3896 98.8772 81.6964L99.4973 80.7765L98.2175 79.9137L97.9389 80.327C97.7771 80.5669 97.6119 80.6107 97.3186 80.413L94.879 78.7683C93.2792 77.6898 91.7482 77.9762 90.6607 79.5893C89.6901 81.0291 89.7536 82.5456 90.1053 83.5195L91.774 83.3453C91.3457 82.5137 91.2975 81.4923 91.8817 80.6257C92.4838 79.7325 93.1215 79.7358 93.8107 80.1228L93.2656 82.916C92.9689 84.2478 93.0974 85.2652 94.0173 85.8853C94.9505 86.5144 95.9818 86.2789 96.7008 85.2124ZM94.7613 84.2927C94.428 84.068 94.3541 83.6886 94.4783 82.9579L94.8552 80.7882L95.5484 81.2556C96.4283 81.8487 96.5655 82.9107 95.9004 83.8973C95.532 84.4439 95.1346 84.5444 94.7613 84.2927Z" fill="#3F2B1E"/>
<path d="M102.26 75.3435C102.839 73.8954 102.152 72.755 101.11 72.0267L103.096 72.8205L103.77 71.1335L96.4998 68.2269L95.8254 69.9139L99.901 71.5433C101.095 72.0207 101.719 72.7551 101.23 73.9793C100.782 75.0989 100.051 75.1528 99.1552 74.7947L94.6018 72.9743L93.9334 74.6464L98.9943 76.6697C100.502 77.2725 101.699 76.7468 102.26 75.3435Z" fill="#3F2B1E"/>
<path d="M105.517 64.4674C105.732 63.3463 105.356 62.4885 104.93 62.0632L103.245 62.3137C103.644 62.6194 104.049 63.1552 103.934 63.7553C103.835 64.2764 103.554 64.6319 102.717 64.4717L98.927 63.7463L99.3774 61.3934L98.0035 61.1304L97.5532 63.4833L95.5003 63.0904L96.283 65.0736L97.2146 65.2519L96.9849 66.4521L98.3588 66.715L98.5885 65.5149L102.805 66.3219C104.163 66.5819 105.239 65.9202 105.517 64.4674Z" fill="#3F2B1E"/>
<path d="M108.813 57.3964C108.819 56.1263 108.261 55.2069 106.689 54.6361L98.3269 51.6991L98.3167 53.6927L102.747 55.1143L104.834 55.6878L102.741 56.2397L98.2964 57.6318L98.2863 59.6093L105.647 57.0586L105.653 55.9492L106.086 56.0961C106.953 56.39 107.224 56.7773 107.221 57.3882C107.217 58.1117 106.765 58.5918 106.168 59.0067L107.61 59.8663C108.223 59.4353 108.807 58.5219 108.813 57.3964Z" fill="#3F2B1E"/>
<path d="M103.712 39.9414L99.5137 40.2874L97.0549 40.6237L99.1713 39.3341L102.625 36.9151L101.848 34.7512L93.7991 35.5063L94.4784 37.3978L98.9017 36.6805L101.089 36.2537L99.1788 37.4522L95.4403 40.0761L96.1631 42.0886L100.711 41.7193L102.953 41.4439L100.994 42.5062L97.1195 44.7518L97.7988 46.6432L104.494 42.1204L103.712 39.9414Z" fill="#3F2B1E"/>
<path d="M90.8082 33.3297L89.2392 34.2771L90.1699 35.8186L91.739 34.8712L90.8082 33.3297ZM98.4609 28.7091L91.7579 32.7563L92.6887 34.2978L99.3916 30.2507L98.4609 28.7091Z" fill="#3F2B1E"/>
<path d="M94.5583 23.0266C93.8371 22.1417 92.9382 21.8788 92.3386 21.932L91.4479 23.384C91.939 23.274 92.6098 23.3081 92.9958 23.7816C93.3311 24.1929 93.423 24.6365 92.7625 25.1749L89.7715 27.6129L88.2579 25.756L87.1737 26.6398L88.6873 28.4967L87.0672 29.8172L89.0898 30.4918L89.825 29.8924L90.5971 30.8396L91.6813 29.9558L90.9093 29.0087L94.2367 26.2964C95.3085 25.4228 95.4929 24.1731 94.5583 23.0266Z" fill="#3F2B1E"/>
<path d="M89.316 17.8156L86.5028 21.1849C85.6784 22.1722 84.7867 22.5378 83.7747 21.6928C82.8491 20.9199 83.0248 20.2078 83.6431 19.4673L86.786 15.7032L85.3915 14.5387L81.8981 18.7225C80.8573 19.969 80.9858 21.2701 82.1582 22.2491C83.3553 23.2486 84.6525 22.9493 85.6681 22.1845L82.4118 26.0844L83.7941 27.2386L90.6983 18.9698L89.316 17.8156Z" fill="#3F2B1E"/>
<path d="M75.0424 8.67003C73.589 8.10457 72.455 8.80204 71.7364 9.85087L72.5118 7.85801L70.8186 7.19928L67.9796 14.4965L69.6728 15.1552L71.2643 11.0646C71.7306 9.86585 72.4591 9.23493 73.6878 9.71295C74.8116 10.1502 74.8723 10.8811 74.5225 11.7801L72.7445 16.3502L74.4227 17.0031L76.3989 11.9236C76.9877 10.4102 76.4509 9.218 75.0424 8.67003Z" fill="#3F2B1E"/>
<path d="M63.7207 5.46552C62.0872 5.19286 60.6756 5.73964 60.4215 7.26206C60.2362 8.37216 60.7541 9.17582 62.4085 9.90841L63.3045 10.3025C64.3061 10.7468 64.684 11.0218 64.5914 11.5768C64.504 12.1002 63.9965 12.3088 63.3146 12.195C62.3155 12.0282 61.5755 11.3831 61.1793 10.4367L59.9473 11.3721C60.2775 12.3238 61.3028 13.3099 62.9521 13.5852C64.7282 13.8817 66.0315 13.2028 66.2724 11.7596C66.508 10.3482 65.4721 9.62108 64.2986 9.13179L63.3102 8.70598C62.4882 8.35687 61.9332 8.06862 62.0285 7.49771C62.1212 6.94266 62.6578 6.75513 63.419 6.8822C64.7987 7.11251 65.6178 8.06427 65.9163 8.91281L67.1483 7.97743C66.7653 6.65838 65.37 5.74083 63.7207 5.46552Z" fill="#3F2B1E"/>
</svg>
