<svg width="113" height="72" viewBox="0 0 113 72" fill="none" xmlns="http://www.w3.org/2000/svg">
<g clip-path="url(#clip0_1_138)">
<path d="M56.0935 62.3539C55.8862 62.3539 55.6789 62.271 55.5338 62.1155L33.9647 40.08C31.5808 37.4577 30.2852 34.0995 30.2852 30.6066C30.2852 22.8122 36.6077 16.469 44.402 16.469C49.0869 16.469 53.4401 18.7907 56.0624 22.6049C58.6743 18.7803 63.0379 16.4482 67.7124 16.4482C71.4956 16.4482 75.0403 17.9097 77.7041 20.5734C80.3782 23.2372 81.85 26.7819 81.85 30.5547C81.85 34.0477 80.5544 37.4059 78.2016 40.0178C78.1809 40.0385 56.6532 62.1259 56.6532 62.1259C56.5081 62.271 56.3112 62.3643 56.0935 62.3643V62.3539ZM44.4124 18.0237C41.0438 18.0237 37.8826 19.34 35.5194 21.7136C33.1458 24.0871 31.8399 27.2484 31.8502 30.6066C31.8502 33.716 33.0111 36.701 35.1152 39.0228L56.1039 60.4675L77.0615 38.9606C79.1552 36.6389 80.2953 33.6538 80.2953 30.5547C80.2953 27.1965 78.979 24.0456 76.6054 21.6721C74.2319 19.2986 71.081 18.003 67.7228 18.003C63.1623 18.003 58.9645 20.4801 56.7465 24.4602C56.6117 24.709 56.3526 24.8541 56.0728 24.8541C55.7929 24.8541 55.5338 24.6986 55.3887 24.4602C53.1603 20.4905 48.9625 18.0237 44.4227 18.0237H44.4124Z" fill="#4C4C4C"/>
<path d="M32.7319 23.6103C32.4521 23.6103 32.1722 23.4548 32.0375 23.1853L26.9276 13.2144C26.4612 12.2919 26.3679 11.2451 26.6892 10.2604C27.0106 9.27578 27.6843 8.47769 28.6067 8.00091C29.5396 7.52413 30.5968 7.44121 31.5918 7.76252C32.5868 8.08383 33.3953 8.77827 33.872 9.70073L38.1942 18.1377C38.3911 18.5212 38.2356 18.9876 37.8521 19.1845C37.4686 19.3815 37.0022 19.226 36.8053 18.8425L32.4832 10.4055C32.193 9.84584 31.7058 9.43125 31.1046 9.23432C30.5035 9.03739 29.8609 9.08921 29.3012 9.37943C28.7518 9.65928 28.3372 10.1464 28.1507 10.7268C27.9641 11.3176 28.0159 11.9395 28.2958 12.4992L33.4056 22.4702C33.6026 22.8537 33.4471 23.3201 33.0636 23.517C32.9496 23.5792 32.8252 23.5999 32.7112 23.5999L32.7319 23.6103Z" fill="#4C4C4C"/>
<path d="M26.5232 27.3309C26.2434 27.3309 25.9635 27.1754 25.8288 26.906L17.5784 10.8405C16.4694 8.67428 17.3297 6.02089 19.4855 4.91186C20.5324 4.37289 21.7243 4.27961 22.8437 4.64237C23.9631 5.00514 24.8752 5.7825 25.4142 6.81898L28.5029 12.8409C28.6998 13.2244 28.5444 13.6908 28.1609 13.8878C27.7774 14.0847 27.311 13.9292 27.114 13.5457L24.0253 7.52379C23.6833 6.85008 23.0925 6.35257 22.367 6.11417C21.6414 5.87578 20.8641 5.93797 20.1903 6.29038C18.7911 7.00555 18.2314 8.7261 18.9569 10.1254L27.2073 26.1908C27.4042 26.5743 27.2488 27.0407 26.8756 27.2376C26.7616 27.2998 26.6372 27.3205 26.5232 27.3205V27.3309Z" fill="#4C4C4C"/>
<path d="M20.0458 30.6579C19.7659 30.6579 19.4861 30.5024 19.3513 30.2329L8.8518 9.7832C8.31283 8.73636 8.21955 7.54441 8.58231 6.42501C8.94508 5.30561 9.72244 4.39351 10.7589 3.85454C12.9148 2.74551 15.5786 3.60578 16.6876 5.76166L20.1391 12.4988C20.336 12.8823 20.1805 13.3487 19.8074 13.5456C19.4239 13.7426 18.9575 13.5871 18.7605 13.2036L15.3091 6.46647C14.5939 5.06722 12.8733 4.51789 11.4741 5.23306C10.0748 5.94823 9.52551 7.66879 10.2407 9.06803L20.7402 29.5178C20.9372 29.9013 20.7817 30.3677 20.4085 30.5646C20.2945 30.6268 20.1702 30.6475 20.0561 30.6475L20.0458 30.6579Z" fill="#4C4C4C"/>
<path d="M19.443 45.4798C19.1631 45.4798 18.8833 45.3243 18.7485 45.0549L4.21709 16.6968C3.10806 14.5305 3.96833 11.8771 6.12421 10.7681C8.29045 9.65908 10.9438 10.5194 12.0529 12.6752L14.7892 18.0131C14.9861 18.3966 14.8306 18.863 14.4471 19.06C14.0636 19.2569 13.5972 19.1014 13.4003 18.7179L10.664 13.38C10.322 12.7063 9.73116 12.2088 9.00562 11.9704C8.28009 11.732 7.50273 11.7942 6.82902 12.1466C5.42977 12.8618 4.88043 14.5824 5.59561 15.9816L20.127 44.3397C20.324 44.7232 20.1685 45.1896 19.785 45.3865C19.671 45.4487 19.5466 45.4695 19.4326 45.4695L19.443 45.4798Z" fill="#4C4C4C"/>
<path d="M56.0938 71.9926H35.1673C34.8771 71.9926 34.6076 71.8268 34.4729 71.5677L29.0935 61.0785C28.5546 60.0213 27.5699 59.2958 26.4712 59.1507C20.9883 58.394 15.5675 54.0512 10.3229 49.8534C8.15664 48.1121 5.91784 46.319 3.76196 44.868C3.29555 44.4845 2.84986 44.1735 2.40417 43.8626C1.04639 42.9194 -0.497968 41.8414 0.134285 40.2142C0.155014 40.1623 0.175744 40.1105 0.206838 40.0691C0.88055 39.0533 1.88593 38.39 3.12971 38.1516C4.42531 37.9028 6.56046 38.0065 9.40041 39.955C11.9294 41.6238 16.7283 44.018 19.4543 44.0802C19.9621 44.1321 20.5944 44.0491 21.3303 43.9559C24.7299 43.5309 30.4099 42.8365 37.0019 50.807C37.2713 51.1387 37.2299 51.6258 36.8982 51.9057C36.5665 52.1751 36.0794 52.1337 35.7995 51.802C29.7569 44.4845 24.8025 45.096 21.5169 45.5002C20.6877 45.6039 19.9725 45.6868 19.361 45.635C16.2101 45.5728 11.038 42.909 8.52977 41.2506C6.65374 39.9654 4.8399 39.4161 3.43029 39.6856C2.64257 39.841 1.99995 40.2453 1.56463 40.8568C1.48171 41.2921 2.19688 41.8414 3.29555 42.5981C3.76196 42.9194 4.24911 43.2614 4.6948 43.6449C6.84031 45.0856 9.09983 46.8995 11.2972 48.6615C16.3759 52.7348 21.6205 56.9429 26.6785 57.6374C28.2747 57.855 29.6947 58.8915 30.472 60.3944L35.6337 70.469H55.3165V61.6175C55.3165 61.1925 55.6689 60.8401 56.0938 60.8401C56.5188 60.8401 56.8712 61.1925 56.8712 61.6175V71.2464C56.8712 71.6713 56.5188 72.0237 56.0938 72.0237V71.9926Z" fill="#4C4C4C"/>
<path d="M79.3946 23.6095C79.2702 23.6095 79.1562 23.5784 79.0422 23.5265C78.6587 23.3296 78.5136 22.8632 78.7002 22.4797L83.81 12.5088C84.0899 11.9594 84.1417 11.3272 83.9551 10.7364C83.7685 10.1456 83.354 9.6688 82.8046 9.38895C82.2449 9.09873 81.6023 9.04691 81.0011 9.24384C80.4 9.44077 79.9128 9.85536 79.6226 10.4151L75.2901 18.852C75.0932 19.2355 74.6268 19.3806 74.2433 19.194C73.8598 18.9971 73.7147 18.5307 73.9013 18.1472L78.2234 9.71026C78.7002 8.77742 79.5086 8.09335 80.5036 7.77204C81.4987 7.45073 82.5559 7.53365 83.4887 8.01043C84.4112 8.48721 85.0952 9.2853 85.4062 10.27C85.7275 11.2546 85.6342 12.3015 85.1678 13.2239L80.0579 23.1949C79.9232 23.4643 79.6434 23.6198 79.3635 23.6198L79.3946 23.6095Z" fill="#4C4C4C"/>
<path d="M85.6022 27.3308C85.4779 27.3308 85.3638 27.2997 85.2498 27.2479C84.8663 27.051 84.7212 26.5845 84.9182 26.201L93.1685 10.1356C93.8837 8.73636 93.3344 7.0158 91.9351 6.30063C91.2614 5.95859 90.4841 5.8964 89.7585 6.12443C89.033 6.36282 88.4422 6.86033 88.0898 7.53404L85.0011 13.556C84.8042 13.9395 84.3377 14.0846 83.9542 13.898C83.5707 13.7011 83.4256 13.2347 83.6122 12.8512L86.7009 6.82924C87.2399 5.78239 88.152 5.0154 89.2714 4.65263C90.3908 4.28986 91.5931 4.38314 92.6296 4.92211C94.7958 6.03115 95.6457 8.6949 94.5367 10.8508L86.2863 26.9162C86.1516 27.1857 85.8717 27.3412 85.5919 27.3412L85.6022 27.3308Z" fill="#4C4C4C"/>
<path d="M92.0804 30.6577C91.9561 30.6577 91.8421 30.6266 91.728 30.5748C91.3445 30.3779 91.1994 29.9115 91.3964 29.528L101.896 9.07823C102.611 7.67898 102.062 5.95843 100.663 5.24326C99.9888 4.90122 99.2218 4.83903 98.4859 5.06705C97.7604 5.30545 97.1696 5.80296 96.8172 6.47667L93.3657 13.2138C93.1688 13.5973 92.7023 13.7528 92.3188 13.5558C91.9353 13.3589 91.7902 12.8925 91.9768 12.509L95.4283 5.77186C95.9672 4.72502 96.8794 3.95802 97.9988 3.59525C99.1182 3.23249 100.31 3.32577 101.357 3.86474C102.404 4.40371 103.171 5.31581 103.534 6.43521C103.896 7.55461 103.803 8.74656 103.264 9.7934L92.7645 30.2431C92.6298 30.5126 92.3499 30.6681 92.0701 30.6681L92.0804 30.6577Z" fill="#4C4C4C"/>
<path d="M92.6815 45.4794C92.5572 45.4794 92.4432 45.4483 92.3291 45.3965C91.9456 45.1996 91.8005 44.7331 91.9871 44.3496L106.519 15.9916C106.861 15.3178 106.923 14.5509 106.695 13.815C106.456 13.0894 105.959 12.4986 105.285 12.1566C104.611 11.8145 103.834 11.7524 103.109 11.9804C102.383 12.2084 101.792 12.7163 101.45 13.39L98.7139 18.7279C98.5169 19.1114 98.0505 19.2565 97.667 19.0699C97.2835 18.873 97.1384 18.4066 97.325 18.0231L100.061 12.6852C100.59 11.6383 101.512 10.8714 102.632 10.5086C103.751 10.1458 104.943 10.2391 105.99 10.7781C108.156 11.8871 109.006 14.5405 107.897 16.7067L93.3656 45.0648C93.2309 45.3343 92.951 45.4898 92.6712 45.4898L92.6815 45.4794Z" fill="#4C4C4C"/>
<path d="M76.9581 71.9927H56.0938C55.6688 71.9927 55.3164 71.6403 55.3164 71.2154C55.3164 70.7904 55.6688 70.438 56.0938 70.438H76.4814L81.643 60.3634C82.41 58.8502 83.83 57.8241 85.4262 57.6064C90.4842 56.912 95.7288 52.7039 100.808 48.6305C102.995 46.8788 105.264 45.0546 107.472 43.5725C107.856 43.2408 108.343 42.9091 108.809 42.5775C109.897 41.8208 110.623 41.2715 110.54 40.8362C110.105 40.2246 109.462 39.8204 108.674 39.665C107.265 39.3851 105.451 39.9448 103.585 41.2197C101.067 42.8884 95.8946 45.5418 92.6919 45.6143C92.1322 45.6662 91.417 45.5832 90.5878 45.4796C87.3022 45.0754 82.3478 44.4638 76.3052 51.7814C76.0357 52.1131 75.5382 52.1545 75.2065 51.885C74.8748 51.6156 74.8334 51.118 75.1028 50.7864C81.6845 42.8158 87.3748 43.5103 90.7744 43.9352C91.5103 44.0285 92.1529 44.1011 92.5986 44.0596C95.3867 43.9974 100.186 41.6032 102.725 39.9241C105.555 37.9859 107.69 37.8822 108.985 38.131C110.229 38.3693 111.235 39.0327 111.908 40.0484C111.939 40.0899 111.96 40.1417 111.981 40.1936C112.613 41.8208 111.069 42.8884 109.711 43.842C109.276 44.1529 108.82 44.4638 108.415 44.7955C106.197 46.2984 103.958 48.0915 101.792 49.8328C96.5476 54.0306 91.1268 58.3838 85.6438 59.13C84.5452 59.2855 83.5709 60.0007 83.0319 61.0579L77.6526 71.5471C77.5178 71.8062 77.2484 71.972 76.9581 71.972V71.9927Z" fill="#4C4C4C"/>
<path d="M57.5567 8.74671C57.1317 8.74671 56.7793 8.3943 56.7793 7.96935V1.49135C56.7793 1.06639 57.1317 0.713989 57.5567 0.713989C57.9816 0.713989 58.334 1.06639 58.334 1.49135V7.96935C58.334 8.3943 57.9816 8.74671 57.5567 8.74671Z" fill="#4C4C4C"/>
<path d="M45.0669 9.92848C44.7974 9.92848 44.5383 9.79374 44.3932 9.54498L41.0661 3.82361C40.8484 3.45048 40.9728 2.9737 41.3459 2.7664C41.7191 2.54874 42.1959 2.67312 42.4031 3.04625L45.7302 8.76762C45.9479 9.14076 45.8235 9.61754 45.4504 9.82483C45.326 9.89739 45.1913 9.92848 45.0565 9.92848H45.0669Z" fill="#4C4C4C"/>
<path d="M70.0347 9.92848C69.9 9.92848 69.7652 9.89739 69.6409 9.82483C69.2677 9.60717 69.1433 9.13039 69.361 8.76762L72.6881 3.04625C72.9058 2.67312 73.3826 2.54874 73.7557 2.7664C74.1288 2.98407 74.2532 3.46085 74.0355 3.82361L70.7084 9.54498C70.5633 9.79374 70.3042 9.92848 70.0347 9.92848Z" fill="#4C4C4C"/>
</g>
<defs>
<clipPath id="clip0_1_138">
<rect width="112.126" height="71.2787" fill="white" transform="translate(0 0.713867)"/>
</clipPath>
</defs>
</svg>
