<svg width="71" height="79" viewBox="0 0 71 79" fill="none" xmlns="http://www.w3.org/2000/svg">
<g clip-path="url(#clip0_1_118)">
<path d="M51.1229 62.5086H26.2063C25.7721 62.5086 25.4103 62.183 25.3621 61.7488L18.9219 6.69347V0.856282C18.9219 0.38593 19.2957 0 19.7661 0H57.5511C58.0214 0 58.4073 0.38593 58.4073 0.856282V6.58493L51.9671 61.7488C51.9189 62.183 51.5571 62.5086 51.1229 62.5086ZM26.954 60.796H50.3631L56.7068 6.48845V1.71256H20.6224V6.58493L26.9661 60.796H26.954Z" fill="#4C4C4C"/>
<path d="M52.8355 7.83927H24.3973C23.9269 7.83927 23.541 7.45334 23.541 6.98299C23.541 6.51264 23.9269 6.12671 24.3973 6.12671H52.8355C53.3059 6.12671 53.6918 6.51264 53.6918 6.98299C53.6918 7.45334 53.3059 7.83927 52.8355 7.83927Z" fill="#4C4C4C"/>
<path d="M46.3242 78.4885H30.9955C27.8478 78.4885 25.291 75.9317 25.291 72.784V61.9538C25.291 61.4835 25.6769 61.0975 26.1473 61.0975C26.6177 61.0975 27.0036 61.4835 27.0036 61.9538V72.784C27.0036 74.991 28.8006 76.7759 30.9955 76.7759H46.3242C48.5312 76.7759 50.3162 74.979 50.3162 72.784V61.9538C50.3162 61.4835 50.7021 61.0975 51.1725 61.0975C51.6428 61.0975 52.0287 61.4835 52.0287 61.9538V72.784C52.0287 75.9317 49.4719 78.4885 46.3242 78.4885Z" fill="#4C4C4C"/>
<path d="M43.1886 78.4888C42.7183 78.4888 42.3323 78.1029 42.3323 77.6325V72.3501C42.3323 71.1562 41.3675 70.1913 40.1736 70.1913H37.1585C35.9645 70.1913 34.9997 71.1562 34.9997 72.3501V77.6325C34.9997 78.1029 34.6137 78.4888 34.1434 78.4888C33.673 78.4888 33.2871 78.1029 33.2871 77.6325V72.3501C33.2871 70.2154 35.0238 68.4788 37.1585 68.4788H40.1736C42.3082 68.4788 44.0449 70.2154 44.0449 72.3501V77.6325C44.0449 78.1029 43.659 78.4888 43.1886 78.4888Z" fill="#4C4C4C"/>
<path d="M19.6702 76.8241C14.1707 76.8241 7.53751 75.3768 3.67821 69.3829C-3.44943 58.3235 1.94153 36.1687 2.17067 35.228C2.27921 34.7939 2.71339 34.5165 3.15962 34.5888C3.64203 34.6733 15.0028 36.8321 24.229 42.0059C24.639 42.2351 24.7838 42.7537 24.5546 43.1637C24.3255 43.5738 23.8069 43.7185 23.3968 43.4894C15.7868 39.22 6.4159 37.013 3.65409 36.422C2.76163 40.4984 -0.868528 59.1316 5.12545 68.4421C10.4079 76.6552 21.7687 75.3527 26.4119 74.412C26.8702 74.3155 27.3285 74.617 27.4129 75.0753C27.5094 75.5336 27.2079 75.9919 26.7496 76.0884C25.0491 76.4381 22.5164 76.8241 19.6702 76.8241Z" fill="#4C4C4C"/>
<path d="M21.2748 65.1257C21.2024 65.1257 21.1421 65.1257 21.0697 65.1015L11.6506 62.786C11.1923 62.6774 10.915 62.2071 11.0235 61.7488C11.132 61.2905 11.6024 61.0131 12.0607 61.1216L21.4798 63.4372C21.9381 63.5458 22.2155 64.0161 22.1069 64.4744C22.0104 64.8603 21.6607 65.1257 21.2748 65.1257Z" fill="#4C4C4C"/>
<path d="M26.0014 71.8554C25.724 71.8554 25.4466 71.7227 25.2898 71.4694L8.69484 45.8654C8.44157 45.4674 8.55011 44.9368 8.9481 44.6835C9.34609 44.4302 9.87675 44.5388 10.13 44.9367L26.7129 70.5408C26.9662 70.9388 26.8577 71.4694 26.4597 71.7227C26.315 71.8192 26.1582 71.8554 26.0014 71.8554Z" fill="#4C4C4C"/>
<path d="M15.8833 56.563C15.8833 56.563 15.7627 56.563 15.7023 56.5389L9.86516 55.2726C9.40686 55.1761 9.11742 54.7178 9.2139 54.2595C9.31038 53.8012 9.76867 53.4997 10.227 53.6082L16.0642 54.8746C16.5224 54.971 16.8119 55.4293 16.7154 55.8876C16.631 56.2856 16.2692 56.563 15.8833 56.563Z" fill="#4C4C4C"/>
<path d="M16.1124 56.4062C16.1124 56.4062 15.9918 56.4062 15.9315 56.3821C15.4732 56.2856 15.1837 55.8273 15.2802 55.369L16.5466 49.5319C16.643 49.0736 17.1013 48.7841 17.5596 48.8806C18.0179 48.9771 18.3074 49.4354 18.2109 49.8937L16.9446 55.7309C16.8601 56.1288 16.4983 56.4062 16.1124 56.4062Z" fill="#4C4C4C"/>
<path d="M56.3824 76.6796C53.3915 76.6796 51.0518 76.1007 50.8347 76.0404C50.3764 75.9198 50.099 75.4615 50.2196 75.0032C50.3402 74.545 50.7985 74.2796 51.2568 74.3882C51.3654 74.4123 62.5694 77.1862 66.7905 70.1188C70.5774 63.7751 67.9 51.5339 67.1041 48.3258C64.7644 48.8927 57.7453 50.7982 52.6317 54.4163C52.2458 54.6937 51.7151 54.5972 51.4377 54.2113C51.1603 53.8253 51.2568 53.2947 51.6427 53.0173C58.1191 48.4223 67.1644 46.5409 67.5503 46.4685C67.9965 46.3841 68.4186 46.6374 68.5392 47.0716C68.7201 47.7228 73.0016 63.0635 68.2619 70.9872C65.4759 75.6424 60.3623 76.6676 56.3945 76.6676L56.3824 76.6796Z" fill="#4C4C4C"/>
<path d="M51.0399 76.0644C50.8952 76.0644 50.7384 76.0283 50.6057 75.9438C50.1957 75.7026 50.063 75.172 50.3163 74.774L62.3404 54.6453C62.5816 54.2473 63.1123 54.1147 63.5103 54.3438C63.9203 54.585 64.053 55.1157 63.7997 55.5137L51.7756 75.6423C51.6188 75.9077 51.3293 76.0524 51.0399 76.0524V76.0644Z" fill="#4C4C4C"/>
<path d="M55.9846 67.1883C55.5987 67.1883 55.249 66.935 55.1525 66.537L53.8017 61.1822C53.6811 60.7239 53.9585 60.2656 54.4168 60.145C54.8751 60.0244 55.3334 60.3018 55.454 60.7601L56.8047 66.1149C56.9253 66.5732 56.648 67.0315 56.1897 67.1521C56.1173 67.1641 56.0449 67.1762 55.9846 67.1762V67.1883Z" fill="#4C4C4C"/>
<path d="M56.5265 67.502C56.1405 67.502 55.7908 67.2487 55.6943 66.8507C55.5737 66.3924 55.8511 65.9341 56.3094 65.8135L61.6642 64.4628C62.1224 64.3422 62.5807 64.6196 62.7013 65.0779C62.8219 65.5362 62.5446 65.9944 62.0863 66.115L56.7315 67.4658C56.6591 67.4779 56.5868 67.4899 56.5265 67.4899V67.502Z" fill="#4C4C4C"/>
<path d="M21.7807 64.6192C21.7807 64.6192 21.7324 64.6192 21.6962 64.6192C21.2259 64.571 20.8761 64.1609 20.9244 63.6906L21.7324 55.0433C21.7807 54.573 22.2028 54.2353 22.6611 54.2715C23.1314 54.3197 23.4812 54.7297 23.4329 55.2001L22.6249 63.8473C22.5887 64.2936 22.2148 64.6192 21.7807 64.6192Z" fill="#4C4C4C"/>
<path d="M45.9011 43.0676H31.4287C30.9704 43.0676 30.5965 42.7179 30.5724 42.2596L29.3664 20.8525C29.3543 20.6234 29.4387 20.3942 29.5955 20.2133C29.7523 20.0445 29.9814 19.948 30.2106 19.948H47.095C47.3242 19.948 47.5533 20.0445 47.7101 20.2133C47.8669 20.3822 47.9513 20.6113 47.9393 20.8525L46.7332 42.2596C46.7091 42.7179 46.3352 43.0676 45.8769 43.0676H45.9011ZM32.2367 41.3551H45.093L46.2026 21.6606H31.1272L32.2367 41.3551Z" fill="#4C4C4C"/>
</g>
<defs>
<clipPath id="clip0_1_118">
<rect width="70.4805" height="78.4885" fill="white"/>
</clipPath>
</defs>
</svg>
